<svg version="1.1" xmlns="http://www.w3.org/2000/svg" width="475" height="512" viewBox="0 0 475 512"><title>cart-plus</title><path d="M347.428 201.143c0-10-8.286-18.285-18.286-18.285h-36.572v-36.572c0-10-8.286-18.286-18.286-18.286s-18.286 8.286-18.286 18.286v36.572h-36.572c-10 0-18.286 8.286-18.286 18.286s8.286 18.286 18.286 18.286h36.572v36.572c0 10 8.286 18.286 18.286 18.286s18.286-8.286 18.286-18.286v-36.572h36.572c10 0 18.286-8.286 18.286-18.286zM182.857 438.857c0 20.286-16.285 36.572-36.571 36.572s-36.572-16.286-36.572-36.572 16.285-36.572 36.572-36.572 36.572 16.286 36.572 36.572zM438.857 438.857c0 20.286-16.286 36.572-36.572 36.572s-36.572-16.286-36.572-36.572 16.286-36.572 36.572-36.572 36.572 16.286 36.572 36.572zM475.428 128v146.286c0 9.143-6.857 17.143-16.286 18.286l-298.286 34.857c1.143 6.286 3.714 13.428 3.714 20s-4 12.572-6.857 18.286h262.857c10 0 18.286 8.286 18.286 18.286s-8.286 18.286-18.286 18.286h-292.572c-10 0-18.285-8.286-18.285-18.286 0-8.857 13.428-30.857 17.428-39.143l-50.572-235.143h-58.285c-10 0-18.285-8.285-18.285-18.285s8.286-18.285 18.285-18.285h73.143c19.428 0 19.715 22.857 22.572 36.572h343.143c10 0 18.286 8.285 18.286 18.285z"></path></svg>